<svg width="53" height="53" viewBox="0 0 53 53" fill="none" xmlns="http://www.w3.org/2000/svg">
<path d="M0 0V43.3L5.07001 48.37L9.67001 52.97H52.97V0H0Z" fill="#FFAF00"/>
<path d="M8 17H11.7045V24.0711H18.319V17H22V35H18.319V27.6724H11.7045V35H8V17Z" fill="#1E1E1E"/>
<path d="M26 26.4859C26 21.1283 29.784 17 35.2567 17C39.3475 17 42.8007 19.3776 44 23.7419H39.9334C39.1407 21.8081 37.3004 20.762 35.2533 20.762C32.1861 20.762 29.9357 23.2171 29.9357 26.4859C29.9357 29.7547 32.1861 32.2099 35.2533 32.2099C37.197 32.2099 39.089 31.2412 39.9334 29.2581H44C42.7972 33.647 39.3475 36 35.2567 36C29.784 36 26 31.8717 26 26.4894V26.4859Z" fill="#1E1E1E"/>
</svg>
