<svg width="673" height="55" viewBox="0 0 673 55" fill="none" xmlns="http://www.w3.org/2000/svg">
<path d="M188 1H199.05V21.4H218.78V1H229.76V52.93H218.78V31.79H199.05V52.93H188V1Z" fill="#1E1E1E"/>
<path d="M240.16 1H258.04C268.95 1 276.59 7.53 276.59 17.25C276.59 24.22 273.33 29.64 267.32 32.46L278.67 52.94H266.06L256.49 34.17H251.22V52.94H240.17V1H240.16ZM258.18 24.14C262.19 24.14 265.08 21.77 265.08 17.46C265.08 14.12 262.78 11.3 257.81 11.3H251.21V24.13H258.18V24.14Z" fill="#1E1E1E"/>
<path d="M296 27.9C296 12.69 306.98 0.969971 322.86 0.969971C334.73 0.969971 344.75 7.71997 348.23 20.11H336.43C334.13 14.62 328.79 11.65 322.85 11.65C313.95 11.65 307.42 18.62 307.42 27.9C307.42 37.18 313.95 44.15 322.85 44.15C328.49 44.15 333.98 41.4 336.43 35.77H348.23C344.74 48.23 334.73 54.91 322.86 54.91C306.98 54.91 296 43.19 296 27.91V27.9Z" fill="#1E1E1E"/>
<path d="M356.02 1.92999H373.9C384.81 1.92999 392.45 8.45999 392.45 18.18C392.45 25.15 389.19 30.57 383.18 33.39L394.53 53.87H381.92L372.35 35.1H367.08V53.87H356.03V1.93999L356.02 1.92999ZM374.05 25.08C378.06 25.08 380.95 22.71 380.95 18.4C380.95 15.06 378.65 12.24 373.68 12.24H367.08V25.07H374.05V25.08Z" fill="#1E1E1E"/>
<path d="M400.09 34.5V1.92999H411.14V34.42C411.14 40.36 414.33 44.14 420.56 44.14C426.79 44.14 429.98 40.36 429.98 34.35V1.92999H441.03V34.42C441.03 46.51 433.61 54.82 420.55 54.82C407.49 54.82 400.07 46.66 400.07 34.49L400.09 34.5Z" fill="#1E1E1E"/>
<path d="M450.69 1.92999H469.53L481.55 42.73H482.29V1.92999H493.27V53.86H474.28L462.56 13.06H461.74V53.86H450.69V1.92999Z" fill="#1E1E1E"/>
<path d="M501.44 27.9C501.44 12.69 512.42 0.969971 528.3 0.969971C540.17 0.969971 550.19 7.71997 553.67 20.11H541.87C539.57 14.62 534.23 11.65 528.29 11.65C519.39 11.65 512.86 18.62 512.86 27.9C512.86 37.18 519.39 44.15 528.29 44.15C533.93 44.15 539.42 41.4 541.87 35.77H553.67C550.18 48.23 540.17 54.91 528.3 54.91C512.42 54.91 501.44 43.19 501.44 27.91V27.9Z" fill="#1E1E1E"/>
<path d="M561.46 1.92999H572.51V22.33H592.24V1.92999H603.22V53.86H592.24V32.72H572.51V53.86H561.46V1.92999Z" fill="#1E1E1E"/>
<path d="M620.02 1.89001V45.19L625.09 50.26L629.69 54.86H672.99V1.89001H620.02ZM641.26 37.95H630.32V34.26H634.04V22.91H633.74L629.61 25.1V21.08L633.79 18.81H638.06V34.26H641.26V37.95ZM646.37 38.3C644.95 38.3 643.99 37.26 643.99 36C643.99 34.74 644.95 33.7 646.37 33.7C647.79 33.7 648.69 34.74 648.69 36C648.69 37.26 647.79 38.3 646.37 38.3ZM663.41 31.99C663.41 35.85 660.29 38.31 656.93 38.31C653.57 38.31 650.48 35.85 650.48 31.99V24.77C650.48 20.91 653.6 18.45 656.93 18.45C660.26 18.45 663.41 20.91 663.41 24.77V31.99Z" fill="#FFAF00"/>
<path d="M656.93 22.34C655.48 22.34 654.5 23.46 654.5 24.88V31.88C654.5 33.33 655.46 34.42 656.93 34.42C658.4 34.42 659.39 33.33 659.39 31.88V24.88C659.39 23.46 658.41 22.34 656.93 22.34Z" fill="#FFAF00"/>
<path d="M12.43 1L0 17.43V9.16L6.17001 1H12.43Z" fill="#1E1E1E"/>
<path d="M27.01 1L0 36.7V28.42L20.74 1H27.01Z" fill="#1E1E1E"/>
<path d="M41.58 1L1.51 53.97H0V47.68L35.31 1H41.58Z" fill="#1E1E1E"/>
<path d="M56.15 1L16.08 53.97H9.82001L49.88 1H56.15Z" fill="#1E1E1E"/>
<path d="M70.72 1L30.65 53.97H24.39L64.45 1H70.72Z" fill="#1E1E1E"/>
<path d="M85.29 1L45.22 53.97H38.96L79.02 1H85.29Z" fill="#1E1E1E"/>
<path d="M99.87 1L59.8 53.97H53.54L93.6 1H99.87Z" fill="#1E1E1E"/>
<path d="M114.44 1L74.37 53.97H68.11L108.17 1H114.44Z" fill="#1E1E1E"/>
<path d="M129.01 1L88.94 53.97H82.68L122.74 1H129.01Z" fill="#1E1E1E"/>
<path d="M143.58 1L103.51 53.97H97.25L137.31 1H143.58Z" fill="#1E1E1E"/>
<path d="M158.15 1L118.08 53.97H111.82L151.88 1H158.15Z" fill="#1E1E1E"/>
<path d="M170.9 1V3.41L132.65 53.97H126.4L166.46 1H170.9Z" fill="#1E1E1E"/>
<path d="M170.9 14.4V22.68L147.23 53.97H140.97L170.9 14.4Z" fill="#1E1E1E"/>
<path d="M170.9 33.66V41.94L161.8 53.97H155.54L170.9 33.66Z" fill="#1E1E1E"/>
<path d="M170.11 53.97L170.9 52.92V53.97H170.11Z" fill="#1E1E1E"/>
</svg>
