<svg width="171" height="53" viewBox="0 0 171 53" fill="none" xmlns="http://www.w3.org/2000/svg">
<path d="M12.43 0.0300293L0 16.46V8.19003L6.17001 0.0300293H12.43Z" fill="white"/>
<path d="M27.01 0.0300293L0 35.73V27.45L20.74 0.0300293H27.01Z" fill="white"/>
<path d="M41.58 0.0300293L1.51 53H0V46.71L35.31 0.0300293H41.58Z" fill="white"/>
<path d="M56.15 0.0300293L16.08 53H9.82001L49.88 0.0300293H56.15Z" fill="white"/>
<path d="M70.72 0.0300293L30.65 53H24.39L64.45 0.0300293H70.72Z" fill="white"/>
<path d="M85.29 0.0300293L45.22 53H38.96L79.02 0.0300293H85.29Z" fill="white"/>
<path d="M99.87 0.0300293L59.8 53H53.54L93.6 0.0300293H99.87Z" fill="white"/>
<path d="M114.44 0.0300293L74.37 53H68.11L108.17 0.0300293H114.44Z" fill="white"/>
<path d="M129.01 0.0300293L88.94 53H82.68L122.74 0.0300293H129.01Z" fill="white"/>
<path d="M143.58 0.0300293L103.51 53H97.25L137.31 0.0300293H143.58Z" fill="white"/>
<path d="M158.15 0.0300293L118.08 53H111.82L151.88 0.0300293H158.15Z" fill="white"/>
<path d="M170.9 0.0300293V2.44003L132.65 53H126.4L166.46 0.0300293H170.9Z" fill="white"/>
<path d="M170.9 13.4301V21.7101L147.23 53.0001H140.97L170.9 13.4301Z" fill="white"/>
<path d="M170.9 32.69V40.97L161.8 53H155.54L170.9 32.69Z" fill="white"/>
<path d="M170.11 53L170.9 51.95V53H170.11Z" fill="white"/>
</svg>
